<svg width="63" height="99" viewBox="0 0 63 99" fill="none" xmlns="http://www.w3.org/2000/svg">
<path d="M31.5 94L30.3312 94.9401L31.5001 96.3934L32.6689 94.94L31.5 94ZM31.5 94C32.6689 94.94 32.6692 94.9397 32.6696 94.9392L32.6709 94.9376L32.6755 94.9319L32.6923 94.9108L32.7563 94.8305C32.8121 94.7603 32.8941 94.6566 33.0004 94.521C33.2131 94.2497 33.5235 93.8504 33.9174 93.3337C34.7053 92.3004 35.8282 90.7971 37.1744 88.9093C39.8658 85.1352 43.4552 79.8168 47.0468 73.6394C54.1892 61.3545 61.5 45.4063 61.5 31.3984C61.5 14.8569 48.0661 1.5 31.5 1.5C14.9341 1.5 1.5 14.851 1.5 31.3984C1.5 45.4091 8.8108 61.3573 15.9533 73.6416C19.5448 79.8186 23.1343 85.1365 25.8256 88.9101C27.1719 90.7977 28.2947 92.3008 29.0826 93.334C29.4766 93.8507 29.7869 94.2499 29.9996 94.5211C30.106 94.6568 30.188 94.7604 30.2438 94.8306L30.3077 94.9109L30.3246 94.9319L30.3292 94.9377L30.3305 94.9393C30.3309 94.9398 30.3312 94.9401 31.5 94ZM31.5 45.6114C27.8154 45.6114 24.2822 44.1499 21.6775 41.5493C19.0728 38.9488 17.61 35.4222 17.61 31.7455C17.61 28.0688 19.0728 24.5423 21.6775 21.9417C24.2822 19.3411 27.8154 17.8797 31.5 17.8797C35.1846 17.8797 38.7178 19.3411 41.3225 21.9417C43.9272 24.5423 45.39 28.0688 45.39 31.7455C45.39 35.4222 43.9272 38.9488 41.3225 41.5493C38.7178 44.1499 35.1846 45.6114 31.5 45.6114Z" fill="url(#paint0_linear_61_355)" stroke="#8F8CFF" stroke-width="3"/>
<defs>
<linearGradient id="paint0_linear_61_355" x1="31.5" y1="3" x2="31.5" y2="94" gradientUnits="userSpaceOnUse">
<stop stop-color="#FFC0B3"/>
<stop offset="1" stop-color="#FF2D00"/>
</linearGradient>
</defs>
</svg>
