<svg width="27" height="30" viewBox="0 0 27 30" fill="none" xmlns="http://www.w3.org/2000/svg">
<path d="M6.74977 8.79565C7.89683 8.79565 8.8267 7.86945 8.8267 6.72693C8.8267 5.5844 7.89683 4.6582 6.74977 4.6582C5.60272 4.6582 4.67285 5.5844 4.67285 6.72693C4.67285 7.86945 5.60272 8.79565 6.74977 8.79565Z" fill="#2555BB"/>
<path d="M19.7309 11.3816C18.492 11.3831 17.3043 11.874 16.4282 12.7466C15.5522 13.6192 15.0594 14.8022 15.0578 16.0362V23.5354C15.0578 24.5641 14.6476 25.5507 13.9172 26.2781C13.1869 27.0055 12.1964 27.4142 11.1636 27.4142C10.1308 27.4142 9.14028 27.0055 8.40997 26.2781C7.67966 25.5507 7.26938 24.5641 7.26938 23.5354V21.0358L9.86553 20.1737V19.1393H3.63477V20.1737L6.23092 21.0358V23.5354C6.23092 24.8384 6.75061 26.0881 7.67567 27.0095C8.60073 27.9309 9.85538 28.4486 11.1636 28.4486C12.4718 28.4486 13.7265 27.9309 14.6516 27.0095C15.5766 26.0881 16.0963 24.8384 16.0963 23.5354V16.0362C16.0963 15.0761 16.4792 14.1552 17.1609 13.4763C17.8425 12.7974 18.767 12.416 19.7309 12.416C20.6949 12.416 21.6194 12.7974 22.301 13.4763C22.9826 14.1552 23.3655 15.0761 23.3655 16.0362V19.703C23.7089 19.641 24.0606 19.641 24.404 19.703V16.0362C24.4025 14.8022 23.9097 13.6192 23.0336 12.7466C22.1576 11.874 20.9698 11.3831 19.7309 11.3816Z" fill="#2555BB"/>
<path d="M24.4043 19.7029V23.2766H27.0005V22.7594C26.9997 22.0266 26.7386 21.3178 26.2635 20.7583C25.7883 20.1989 25.1297 19.825 24.4043 19.7029Z" fill="#2555BB"/>
<path d="M20.7686 26.8969C20.7686 27.7199 21.0968 28.5092 21.681 29.0912C22.2653 29.6731 23.0577 30 23.8839 30C24.7102 30 25.5026 29.6731 26.0868 29.0912C26.6711 28.5092 26.9993 27.7199 26.9993 26.8969V24.311H20.7686V26.8969Z" fill="#2555BB"/>
<path d="M20.7686 22.7594V23.2766H23.3647V19.7029C22.6393 19.825 21.9807 20.1989 21.5055 20.7583C21.0304 21.3178 20.7693 22.0266 20.7686 22.7594Z" fill="#2555BB"/>
<path d="M9.86553 17.0706H3.63477V18.1049H9.86553V17.0706Z" fill="#2555BB"/>
<path d="M3.63462 15.0017V16.0361H6.23077V9.78338C5.46054 9.6537 4.76733 9.24055 4.28851 8.62579C3.80969 8.01103 3.5802 7.23954 3.64553 6.4642C3.71085 5.68885 4.06622 4.96625 4.64121 4.43958C5.2162 3.91291 5.96885 3.62061 6.75 3.62061C7.53115 3.62061 8.2838 3.91291 8.85879 4.43958C9.43378 4.96625 9.78915 5.68885 9.85447 6.4642C9.9198 7.23954 9.69031 8.01103 9.21149 8.62579C8.73267 9.24055 8.03946 9.6537 7.26923 9.78338V16.0361H9.86539V14.4272C9.85851 13.9553 9.95696 13.4878 10.1536 13.0585C10.3503 12.6292 10.6402 12.2488 11.0025 11.9447C12.0857 11.0694 12.8701 9.88146 13.2478 8.5441C13.6255 7.20674 13.578 5.78567 13.1118 4.47628C12.6457 3.1669 11.7837 2.0335 10.6445 1.23194C9.50531 0.43037 8.14478 0 6.75 0C5.35522 0 3.99469 0.43037 2.85548 1.23194C1.71626 2.0335 0.854319 3.1669 0.388157 4.47628C-0.0780056 5.78567 -0.125492 7.20674 0.252227 8.5441C0.629946 9.88146 1.41432 11.0694 2.4975 11.9447C2.85979 12.2488 3.14974 12.6292 3.34639 13.0585C3.54304 13.4878 3.64149 13.9553 3.63462 14.4272V15.0017Z" fill="#2555BB"/>
</svg>
